<svg xmlns="http://www.w3.org/2000/svg" height="1200" width="1600" version="1.1" xmlns:xlink="http://www.w3.org/1999/xlink" xmlns:svgjs="http://svgjs.com/svgjs"><rect fill="#f1faff" width="1600" height="1200"></rect><g><path d="M1303.75 621.12C1300.64 621.12 1297.66 620.3 1295.45 618.85 1293.26 617.4 1292.02 615.43 1292.02 613.38V438.76C1292.02 436.7 1293.26 434.73 1295.45 433.28 1297.66 431.83 1300.64 431.02 1303.75 431.02H1439C1442.11 431.02 1445.09 430.2 1447.28 428.75 1449.49 427.29 1450.72 425.32 1450.72 423.27V349.05C1450.72 347 1449.49 345.03 1447.28 343.58 1445.09 342.12 1442.11 341.31 1439 341.31H161C157.89 341.31 154.91 342.13 152.72 343.58 150.52 345.03 149.28 347 149.28 349.05V671.14C149.28 673.19 150.52 675.16 152.72 676.61 154.92 678.06 157.9 678.88 161 678.88H295.55C298.66 678.88 301.64 679.7 303.84 681.15 306.04 682.6 307.27 684.57 307.27 686.63V756.36C307.27 758.41 306.04 760.39 303.84 761.84 301.64 763.29 298.66 764.11 295.55 764.11H161C159.46 764.11 157.94 764.31 156.51 764.7 155.1 765.09 153.8 765.65 152.72 766.38 151.63 767.09 150.77 767.95 150.17 768.89 149.58 769.83 149.28 770.83 149.28 771.85V817.74C149.28 818.76 149.58 819.77 150.17 820.71 150.77 821.65 151.63 822.5 152.72 823.22 153.8 823.94 155.1 824.51 156.51 824.9 157.94 825.29 159.46 825.49 161 825.49H1439C1440.54 825.49 1442.06 825.29 1443.49 824.9 1444.91 824.51 1446.2 823.94 1447.29 823.22 1448.38 822.5 1449.24 821.65 1449.83 820.71 1450.42 819.77 1450.72 818.76 1450.72 817.74V628.87C1450.72 626.81 1449.49 624.84 1447.28 623.39 1445.09 621.94 1442.11 621.12 1439 621.12H1303.75Z" fill="#3b607f" opacity="0.3" stroke-width="2" stroke="#272d30"></path><path d="M1439 862.3H161C159.46 862.3 157.94 862.5 156.51 862.89 155.1 863.28 153.8 863.85 152.72 864.56 151.63 865.29 150.77 866.14 150.17 867.08 149.58 868.02 149.28 869.03 149.28 870.04V914.05C149.28 915.07 149.58 916.08 150.17 917.02 150.77 917.95 151.63 918.81 152.72 919.53 153.8 920.24 155.1 920.82 156.51 921.21 157.94 921.6 159.46 921.8 161 921.8H1439C1442.11 921.8 1445.09 920.98 1447.28 919.53 1449.49 918.08 1450.72 916.1 1450.72 914.05V870.04C1450.72 867.99 1449.49 866.02 1447.28 864.56 1445.09 863.11 1442.11 862.3 1439 862.3V862.3Z" fill="#3b607f" opacity="0.3" stroke-width="2" stroke="#272d30"></path></g><g><path d="M908.63 272.32C909.54 272.26 910.45 272.44 911.28 272.83 912.1 273.23 912.8 273.82 913.34 274.57 915.18 277.08 917.38 279.29 919.89 281.13 920.64 281.66 921.23 282.36 921.63 283.19 922.02 284.02 922.21 284.92 922.15 285.83L921.7 291.51C921.63 292.38 921.88 293.25 922.37 293.96 922.88 294.67 923.62 295.18 924.45 295.4L933.81 297.91C934.64 298.14 935.54 298.06 936.33 297.7 937.11 297.33 937.76 296.71 938.14 295.92L940.63 290.7C941.03 289.89 941.64 289.2 942.38 288.68 943.12 288.18 943.98 287.86 944.88 287.76 947.94 287.36 950.92 286.54 953.76 285.34 954.59 284.97 955.5 284.81 956.4 284.88 957.3 284.95 958.18 285.25 958.94 285.75L963.75 289.05C964.46 289.55 965.34 289.77 966.2 289.7 967.07 289.62 967.87 289.24 968.5 288.62L975.33 281.78C975.96 281.16 976.34 280.35 976.41 279.48 976.49 278.62 976.27 277.74 975.77 277.03L972.47 272.21C971.97 271.46 971.67 270.59 971.6 269.68 971.53 268.78 971.69 267.87 972.06 267.05 973.26 264.21 974.08 261.22 974.48 258.16 974.58 257.26 974.9 256.4 975.4 255.66 975.92 254.92 976.61 254.32 977.42 253.91L982.64 251.42C983.43 251.04 984.06 250.4 984.42 249.61 984.79 248.82 984.85 247.93 984.63 247.08L982.12 237.74C981.9 236.89 981.39 236.16 980.68 235.65 979.97 235.15 979.11 234.91 978.23 234.98L972.55 235.43C971.65 235.48 970.73 235.3 969.91 234.91 969.09 234.52 968.38 233.92 967.86 233.17 966.01 230.67 963.8 228.46 961.29 226.62 960.55 226.08 959.95 225.37 959.56 224.56 959.16 223.73 958.99 222.83 959.04 221.91L959.48 216.23C959.55 215.37 959.32 214.5 958.81 213.79 958.31 213.08 957.58 212.57 956.73 212.34L947.38 209.83C946.54 209.61 945.65 209.69 944.86 210.05 944.07 210.42 943.43 211.04 943.06 211.83L940.56 217.05C940.16 217.86 939.56 218.55 938.81 219.06 938.07 219.58 937.2 219.89 936.31 219.99 933.25 220.39 930.26 221.2 927.42 222.41 926.59 222.78 925.69 222.94 924.78 222.87 923.88 222.8 923.01 222.5 922.26 222L917.44 218.69C916.72 218.2 915.86 217.97 914.99 218.05 914.12 218.13 913.31 218.51 912.7 219.13L905.85 225.98C905.23 226.59 904.85 227.4 904.77 228.27 904.69 229.14 904.92 230 905.41 230.72L908.72 235.54C909.21 236.3 909.52 237.16 909.58 238.07 909.66 238.97 909.5 239.87 909.13 240.7 907.92 243.54 907.1 246.53 906.7 249.59 906.61 250.48 906.3 251.35 905.78 252.09 905.27 252.84 904.58 253.44 903.77 253.84L898.55 256.34C897.76 256.71 897.14 257.35 896.77 258.14 896.41 258.93 896.33 259.82 896.55 260.67L899.06 270.01C899.28 270.86 899.8 271.59 900.51 272.09 901.22 272.6 902.09 272.83 902.95 272.76L908.63 272.32ZM929.94 243.22C932.05 241.11 934.73 239.68 937.65 239.1 940.58 238.51 943.6 238.81 946.36 239.95 949.12 241.09 951.47 243.03 953.12 245.51 954.78 247.98 955.66 250.89 955.66 253.87 955.66 256.85 954.78 259.76 953.12 262.24 951.47 264.72 949.12 266.66 946.36 267.8 943.6 268.93 940.58 269.23 937.65 268.65 934.73 268.07 932.05 266.64 929.94 264.53 928.54 263.13 927.43 261.46 926.67 259.64 925.91 257.81 925.52 255.85 925.52 253.87 925.52 251.89 925.91 249.93 926.67 248.1 927.43 246.27 928.54 244.62 929.94 243.22V243.22Z" fill="#113d59" opacity="1" stroke-width="2" stroke="#272d30"></path></g><g><path d="M316.6 450.9C331.38 450.9 343.03 462.55 343.03 477.33 343.03 492.11 331.38 503.75 316.6 503.75 301.82 503.75 290.17 492.11 290.17 477.33 289.95 462.55 301.82 450.9 316.6 450.9Z" fill="#353a3d" opacity="1" stroke-width="2" stroke="#272d30"></path><path d="M382.44 503.75H316.15C302.04 503.75 289.95 491.89 289.95 477.33 289.95 463 301.59 450.9 316.15 450.9H382.44C396.77 450.9 408.87 462.77 408.87 477.33 408.87 491.89 396.77 503.75 382.44 503.75Z" stroke="#272d30" stroke-width="2" stroke-linecap="round" opacity="1" fill="none"></path></g><g><path d="M389.54 838.93C319.88 838.93 263.42 782.46 263.42 712.81 263.42 643.16 319.88 586.7 389.54 586.7 459.18 586.7 515.65 643.16 515.65 712.81 515.65 782.46 459.18 838.93 389.54 838.93Z" fill="#113d59" opacity="1" stroke-width="2" stroke="#272d30"></path><path d="M389.54 706.47L288.05 709.17C287.09 709.17 286.16 709.55 285.48 710.23 284.8 710.92 284.42 711.84 284.42 712.81 284.42 713.77 284.8 714.7 285.48 715.38 286.16 716.06 287.09 716.44 288.05 716.44L389.54 719.14C398.13 719.02 398.18 706.62 389.54 706.47Z" fill="#353a3d" opacity="1" stroke-width="2" stroke="#272d30"></path><path d="M385.05 717.29L434.5 762.93C435.2 763.59 436.11 763.96 437.07 763.96 438.03 763.96 438.94 763.57 439.62 762.9 440.29 762.22 440.68 761.3 440.68 760.35 440.69 759.39 440.32 758.47 439.65 757.78L394.02 708.33C387.83 702.18 378.88 711.07 385.05 717.29Z" fill="#353a3d" opacity="1" stroke-width="2" stroke="#272d30"></path><path d="M389.54 724.77C382.93 724.77 377.58 719.41 377.58 712.81 377.58 706.21 382.93 700.85 389.54 700.85 396.13 700.85 401.49 706.21 401.49 712.81 401.49 719.41 396.13 724.77 389.54 724.77Z" fill="#353a3d" opacity="1" stroke-width="2" stroke="#272d30"></path></g><g><path d="M447.62 285.82C447.62 285.35 447.62 285.35 448.08 285.35H770.91C771.37 285.35 771.37 285.35 771.37 285.82V725.53C771.37 726 771.37 726 770.91 726H448.08C447.62 726 447.62 726 447.62 725.53V285.82Z" fill="#3b607f" opacity="1" stroke-width="2" stroke="#272d30"></path><path d="M540.85 246.39C540.85 245.93 541.31 245.93 540.85 246.39L647.53 245.93C647.99 245.93 647.99 245.93 647.99 246.39V352.61C647.99 353.07 647.99 353.07 647.53 353.07H541.31C540.85 353.07 540.85 353.07 540.85 352.61V246.39Z" fill="#f2f6f9" opacity="1" stroke-width="2" stroke="#272d30"></path><path d="M664.23 246.39C664.23 245.93 664.23 245.93 664.69 245.93H770.91C771.37 245.93 771.37 245.93 771.37 246.39V352.61C771.37 353.07 771.37 353.07 770.91 353.07H664.69C664.23 353.07 664.23 353.07 664.23 352.61V246.39Z" fill="#113d59" opacity="1" stroke-width="2" stroke="#272d30"></path></g><g><path d="M698.53 568.83H693.44C692.36 568.83 691.49 569.7 691.49 570.79V573.59C691.49 574.67 692.36 575.55 693.44 575.55H698.53C699.61 575.55 700.49 574.67 700.49 573.59V570.79C700.49 569.7 699.61 568.83 698.53 568.83Z" fill="#113d59" opacity="1" stroke-width="2" stroke="#272d30"></path><path d="M649.75 568.83H644.66C643.58 568.83 642.7 569.7 642.7 570.79V573.59C642.7 574.67 643.58 575.55 644.66 575.55H649.75C650.83 575.55 651.71 574.67 651.71 573.59V570.79C651.71 569.7 650.83 568.83 649.75 568.83Z" fill="#113d59" opacity="1" stroke-width="2" stroke="#272d30"></path><path d="M600.97 568.83H595.87C594.79 568.83 593.92 569.7 593.92 570.79V573.59C593.92 574.67 594.79 575.55 595.87 575.55H600.97C602.04 575.55 602.92 574.67 602.92 573.59V570.79C602.92 569.7 602.04 568.83 600.97 568.83Z" fill="#113d59" opacity="1" stroke-width="2" stroke="#272d30"></path><path d="M552.18 568.83H547.09C546.01 568.83 545.13 569.7 545.13 570.79V573.59C545.13 574.67 546.01 575.55 547.09 575.55H552.18C553.26 575.55 554.13 574.67 554.13 573.59V570.79C554.13 569.7 553.26 568.83 552.18 568.83Z" fill="#113d59" opacity="1" stroke-width="2" stroke="#272d30"></path><path d="M503.4 568.83H498.3C497.22 568.83 496.35 569.7 496.35 570.79V573.59C496.35 574.67 497.22 575.55 498.3 575.55H503.4C504.48 575.55 505.35 574.67 505.35 573.59V570.79C505.35 569.7 504.48 568.83 503.4 568.83Z" fill="#113d59" opacity="1" stroke-width="2" stroke="#272d30"></path><path d="M500.32 533.87H501.39C501.91 533.87 502.42 533.98 502.9 534.18 503.38 534.38 503.83 534.67 504.19 535.04 504.56 535.4 504.85 535.84 505.05 536.32 505.25 536.81 505.35 537.32 505.35 537.84V559.36C505.35 559.36 505.35 559.37 505.35 559.37 505.35 559.37 505.34 559.38 505.34 559.38 505.34 559.39 505.33 559.39 505.33 559.39 505.32 559.39 505.32 559.39 505.31 559.39H496.39C496.38 559.39 496.36 559.39 496.36 559.38 496.35 559.38 496.35 559.37 496.35 559.36V537.84C496.35 536.79 496.77 535.78 497.51 535.04 498.25 534.3 499.26 533.87 500.32 533.87V533.87Z" fill="#000000" opacity="1" stroke-width="2" stroke="#272d30"></path><path d="M646.67 508.47H647.74C648.26 508.47 648.78 508.57 649.26 508.77 649.74 508.97 650.17 509.26 650.54 509.63 650.91 510 651.2 510.44 651.4 510.92 651.6 511.4 651.71 511.92 651.71 512.44V559.36C651.71 559.36 651.71 559.37 651.71 559.37 651.7 559.37 651.7 559.38 651.69 559.38 651.69 559.39 651.69 559.39 651.68 559.39 651.68 559.39 651.67 559.39 651.67 559.39H642.74C642.73 559.39 642.72 559.39 642.71 559.38 642.71 559.38 642.7 559.37 642.7 559.36V512.44C642.7 511.38 643.12 510.37 643.86 509.63 644.61 508.89 645.62 508.47 646.67 508.47V508.47Z" fill="#000000" opacity="1" stroke-width="2" stroke="#272d30"></path><path d="M695.45 484.29H696.53C697.05 484.29 697.56 484.4 698.04 484.59 698.52 484.79 698.96 485.08 699.33 485.45 699.7 485.82 699.99 486.26 700.19 486.74 700.39 487.22 700.49 487.74 700.49 488.26V559.36C700.49 559.36 700.49 559.37 700.49 559.37 700.48 559.37 700.48 559.38 700.48 559.38 700.48 559.39 700.47 559.39 700.46 559.39 700.46 559.39 700.46 559.39 700.45 559.39H691.53C691.51 559.39 691.51 559.39 691.5 559.38 691.49 559.38 691.49 559.37 691.49 559.36V488.26C691.49 487.21 691.9 486.2 692.65 485.45 693.39 484.71 694.4 484.29 695.45 484.29V484.29Z" fill="#000000" opacity="1" stroke-width="2" stroke="#272d30"></path><path d="M597.88 531.62H598.96C599.48 531.62 599.99 531.72 600.47 531.92 600.95 532.12 601.39 532.42 601.76 532.79 602.13 533.15 602.42 533.59 602.62 534.07 602.82 534.55 602.92 535.07 602.92 535.59V559.36C602.92 559.36 602.92 559.37 602.92 559.37 602.92 559.37 602.91 559.38 602.91 559.38 602.91 559.39 602.9 559.39 602.9 559.39 602.89 559.39 602.89 559.39 602.88 559.39H593.96C593.95 559.39 593.94 559.39 593.93 559.38 593.92 559.37 593.92 559.37 593.92 559.36V535.59C593.92 534.53 594.33 533.53 595.08 532.79 595.82 532.04 596.83 531.62 597.88 531.62V531.62Z" fill="#000000" opacity="1" stroke-width="2" stroke="#272d30"></path><path d="M549.1 522.3H550.17C550.69 522.3 551.21 522.4 551.69 522.6 552.17 522.8 552.61 523.09 552.97 523.46 553.34 523.83 553.64 524.27 553.84 524.75 554.04 525.23 554.14 525.75 554.14 526.27V559.36C554.14 559.37 554.13 559.38 554.13 559.38 554.12 559.39 554.11 559.39 554.1 559.39H545.17C545.16 559.39 545.15 559.39 545.14 559.38 545.14 559.38 545.13 559.37 545.13 559.36V526.27C545.13 525.21 545.55 524.2 546.29 523.46 547.04 522.72 548.05 522.3 549.1 522.3V522.3Z" fill="#000000" opacity="1" stroke-width="2" stroke="#272d30"></path><path d="M500.94 519.46L499.6 513.8 549.57 502.06 598.03 511.32 645.64 488.72 694.15 449.05 697.83 453.54 648.77 493.67 598.8 517.38 549.7 508 500.94 519.46Z" fill="#113d59" opacity="1" stroke-width="2" stroke="#272d30"></path><path d="M695.99 479.06C711.32 479.06 723.76 466.63 723.76 451.3 723.76 435.96 711.32 423.53 695.99 423.53 680.65 423.53 668.22 435.96 668.22 451.3 668.22 466.63 680.65 479.06 695.99 479.06Z" fill="#353a3d" opacity="1" stroke-width="2" stroke="#272d30"></path><path d="M647.2 500.52C652.35 500.52 656.53 496.35 656.53 491.2 656.53 486.05 652.35 481.88 647.2 481.88 642.06 481.88 637.88 486.05 637.88 491.2 637.88 496.35 642.06 500.52 647.2 500.52Z" fill="#353a3d" opacity="1" stroke-width="2" stroke="#272d30"></path><path d="M598.42 523.67C603.57 523.67 607.74 519.5 607.74 514.35 607.74 509.2 603.57 505.03 598.42 505.03 593.27 505.03 589.1 509.2 589.1 514.35 589.1 519.5 593.27 523.67 598.42 523.67Z" fill="#353a3d" opacity="1" stroke-width="2" stroke="#272d30"></path><path d="M549.64 514.35C554.78 514.35 558.96 510.18 558.96 505.03 558.96 499.88 554.78 495.71 549.64 495.71 544.48 495.71 540.31 499.88 540.31 505.03 540.31 510.18 544.48 514.35 549.64 514.35Z" fill="#353a3d" opacity="1" stroke-width="2" stroke="#272d30"></path><path d="M500.85 525.93C506 525.93 510.17 521.75 510.17 516.61 510.17 511.46 506 507.28 500.85 507.28 495.7 507.28 491.53 511.46 491.53 516.61 491.53 521.75 495.7 525.93 500.85 525.93Z" fill="#353a3d" opacity="1" stroke-width="2" stroke="#272d30"></path></g><g><path d="M774.95 991.32C780.6 991.31 786.01 989.11 790.05 985.17 794.09 981.22 796.44 975.86 796.59 970.22 797.62 934.07 801.25 900.21 806.92 870.38L807.08 870.41H983.93C1038.38 870.41 1045.51 734.09 1063.33 628.59L1232.52 628.58C1274.04 628.58 1305.65 532.23 1309.07 409.01 1309.15 406.12 1308.65 403.24 1307.6 400.55 1306.54 397.85 1304.96 395.4 1302.94 393.32 1300.93 391.25 1298.51 389.6 1295.84 388.48 1293.18 387.35 1290.32 386.77 1287.43 386.77H950.11C944.46 386.78 939.04 389 935 392.94 930.96 396.89 928.62 402.26 928.47 407.91 927.53 444.03 924.15 477.87 918.82 507.69H743.84C689.38 507.69 682.25 644 664.43 749.49H495.24C453.74 749.49 419.7 845.79 416 968.95 415.9 971.85 416.39 974.73 417.44 977.45 418.48 980.15 420.06 982.63 422.08 984.71 424.1 986.8 426.52 988.45 429.19 989.59 431.86 990.72 434.73 991.31 437.64 991.31L774.95 991.32Z" fill="#f2f6f9" opacity="1" stroke-width="2" stroke="#272d30"></path><path d="M1124.46 507.69H918.82" stroke="#272d30" stroke-width="2" stroke-linecap="round" stroke-linejoin="round" opacity="1" fill="none"></path><path d="M875.87 749.5H664.43" stroke="#272d30" stroke-width="2" stroke-linecap="round" stroke-linejoin="round" opacity="1" fill="none"></path><path d="M983.93 870.41C929.9 870.41 929.9 749.5 875.87 749.5 846.38 749.5 820.67 798.1 806.92 870.39L983.93 870.41Z" fill="#f2f6f900" opacity="0" stroke-width="2" stroke="#ffffff00"></path><path d="M806.92 870.38C806.92 870.38 807.43 867.73 807.69 866.41 821.62 796.31 846.93 749.5 875.87 749.5 924.57 749.5 929.37 847.71 969.4 867.1 973.93 869.29 978.9 870.42 983.93 870.41" stroke="#272d30" stroke-width="2" stroke-linecap="round" stroke-linejoin="round" opacity="1" fill="none"></path><path d="M1232.52 628.58C1178.49 628.58 1178.49 507.68 1124.46 507.68 1090.09 507.68 1074.58 562 1063.33 628.58H1232.52Z" fill="#f2f6f900" opacity="0" stroke-width="2" stroke="#ffffff00"></path><path d="M1063.33 628.59L1063.96 624.9C1075.16 560 1090.73 507.68 1124.46 507.68 1173.62 507.68 1178.06 607.75 1219.13 625.81 1223.35 627.66 1227.91 628.61 1232.52 628.58" stroke="#272d30" stroke-width="2" stroke-linecap="round" stroke-linejoin="round" opacity="1" fill="none"></path><path d="M935.9 555.05H764.8C763.38 555 762.03 554.4 761.04 553.38 760.05 552.36 759.5 550.99 759.5 549.57 759.5 548.14 760.05 546.77 761.04 545.75 762.03 544.73 763.38 544.13 764.8 544.08H935.9C937.32 544.13 938.68 544.73 939.66 545.75 940.65 546.77 941.21 548.14 941.21 549.57 941.21 550.99 940.65 552.36 939.66 553.38 938.68 554.4 937.32 555 935.9 555.05Z" fill="#c1d4e2" opacity="1" stroke-width="2" stroke="#272d30"></path><path d="M850.35 590.04H754.28C752.85 589.99 751.51 589.39 750.52 588.37 749.52 587.34 748.98 585.97 748.98 584.55 748.98 583.12 749.52 581.76 750.52 580.74 751.51 579.71 752.85 579.11 754.28 579.06H850.35C851.77 579.11 853.12 579.71 854.11 580.74 855.1 581.76 855.66 583.12 855.66 584.55 855.66 585.97 855.1 587.34 854.11 588.37 853.12 589.39 851.77 589.99 850.35 590.04Z" fill="#c1d4e2" opacity="1" stroke-width="2" stroke="#272d30"></path><path d="M877.72 625.02H747.11C745.65 625.02 744.26 624.44 743.23 623.42 742.2 622.39 741.62 620.99 741.62 619.53 741.62 618.08 742.2 616.68 743.23 615.65 744.26 614.63 745.65 614.04 747.11 614.04H877.72C879.18 614.04 880.57 614.63 881.6 615.65 882.63 616.68 883.21 618.08 883.21 619.53 883.21 620.99 882.63 622.39 881.6 623.42 880.57 624.44 879.18 625.02 877.72 625.02V625.02Z" fill="#c1d4e2" opacity="1" stroke-width="2" stroke="#272d30"></path><path d="M874.38 660.01H741.42C740.69 660.03 739.96 659.9 739.27 659.64 738.58 659.37 737.95 658.98 737.42 658.47 736.89 657.95 736.48 657.34 736.19 656.66 735.9 655.98 735.76 655.25 735.76 654.52 735.76 653.79 735.9 653.06 736.19 652.38 736.48 651.7 736.89 651.09 737.42 650.58 737.95 650.06 738.58 649.67 739.27 649.4 739.96 649.14 740.69 649.02 741.42 649.03H874.38C875.13 649.02 875.86 649.14 876.54 649.4 877.22 649.67 877.85 650.06 878.38 650.58 878.91 651.09 879.33 651.7 879.62 652.38 879.9 653.06 880.05 653.79 880.05 654.52 880.05 655.25 879.9 655.98 879.62 656.66 879.33 657.34 878.91 657.95 878.38 658.47 877.85 658.98 877.22 659.37 876.54 659.64 875.86 659.9 875.13 660.03 874.38 660.01V660.01Z" fill="#c1d4e2" opacity="1" stroke-width="2" stroke="#272d30"></path><path d="M1161.59 422.83H1065.52C1064.79 422.86 1064.06 422.73 1063.36 422.47 1062.68 422.21 1062.06 421.8 1061.53 421.29 1061 420.78 1060.58 420.16 1060.29 419.49 1060 418.81 1059.86 418.09 1059.86 417.34 1059.86 416.61 1060 415.88 1060.29 415.21 1060.58 414.53 1061 413.92 1061.53 413.41 1062.06 412.9 1062.68 412.49 1063.36 412.23 1064.06 411.96 1064.79 411.84 1065.52 411.87H1161.59C1162.33 411.84 1163.06 411.96 1163.75 412.23 1164.43 412.49 1165.05 412.9 1165.58 413.41 1166.11 413.92 1166.54 414.53 1166.82 415.21 1167.11 415.88 1167.26 416.61 1167.26 417.34 1167.26 418.09 1167.11 418.81 1166.82 419.49 1166.54 420.16 1166.11 420.78 1165.58 421.29 1165.05 421.8 1164.43 422.21 1163.75 422.47 1163.06 422.73 1162.33 422.86 1161.59 422.83Z" fill="#c1d4e2" opacity="1" stroke-width="2" stroke="#272d30"></path><path d="M1136.28 479.6H987.16C986.42 479.62 985.69 479.5 985.01 479.23 984.32 478.96 983.7 478.57 983.17 478.06 982.64 477.55 982.22 476.93 981.93 476.26 981.65 475.57 981.49 474.85 981.49 474.11 981.49 473.38 981.65 472.65 981.93 471.97 982.22 471.3 982.64 470.68 983.17 470.17 983.7 469.66 984.32 469.26 985.01 468.99 985.69 468.73 986.42 468.6 987.16 468.63H1136.28C1137.01 468.6 1137.75 468.73 1138.43 468.99 1139.12 469.26 1139.75 469.66 1140.27 470.17 1140.8 470.68 1141.22 471.3 1141.51 471.97 1141.8 472.65 1141.94 473.38 1141.94 474.11 1141.94 474.85 1141.8 475.57 1141.51 476.26 1141.22 476.93 1140.8 477.55 1140.27 478.06 1139.75 478.57 1139.12 478.96 1138.43 479.23 1137.75 479.5 1137.01 479.62 1136.28 479.6Z" fill="#c1d4e2" opacity="1" stroke-width="2" stroke="#272d30"></path><path d="M935.9 729.98H731.24C729.82 729.93 728.47 729.34 727.47 728.32 726.48 727.3 725.92 725.92 725.92 724.49 725.92 723.07 726.48 721.69 727.47 720.67 728.47 719.65 729.82 719.06 731.24 719.01H935.9C937.33 719.06 938.68 719.65 939.67 720.67 940.67 721.69 941.23 723.07 941.23 724.49 941.23 725.92 940.67 727.3 939.67 728.32 938.68 729.34 937.33 729.93 935.9 729.98V729.98Z" fill="#c1d4e2" opacity="1" stroke-width="2" stroke="#272d30"></path><path d="M790.48 694.99H736.34C734.88 694.99 733.49 694.41 732.46 693.38 731.43 692.35 730.85 690.96 730.85 689.5 730.85 688.05 731.43 686.65 732.46 685.62 733.49 684.59 734.88 684.02 736.34 684.02H790.48C791.94 684.02 793.33 684.59 794.36 685.62 795.39 686.65 795.97 688.05 795.97 689.5 795.97 690.96 795.39 692.35 794.36 693.38 793.33 694.41 791.94 694.99 790.48 694.99Z" fill="#c1d4e2" opacity="1" stroke-width="2" stroke="#272d30"></path><path d="M690.91 785.13H519.82C519.08 785.15 518.35 785.02 517.67 784.76 516.98 784.49 516.35 784.1 515.82 783.58 515.29 783.07 514.88 782.46 514.59 781.78 514.3 781.11 514.16 780.37 514.16 779.64 514.16 778.91 514.3 778.18 514.59 777.51 514.88 776.82 515.29 776.22 515.82 775.7 516.35 775.19 516.98 774.79 517.67 774.52 518.35 774.26 519.08 774.14 519.82 774.16H690.91C691.65 774.14 692.38 774.26 693.07 774.52 693.75 774.79 694.38 775.19 694.91 775.7 695.44 776.22 695.86 776.82 696.15 777.51 696.44 778.18 696.58 778.91 696.58 779.64 696.58 780.37 696.44 781.11 696.15 781.78 695.86 782.46 695.44 783.07 694.91 783.58 694.38 784.1 693.75 784.49 693.07 784.76 692.38 785.02 691.65 785.15 690.91 785.13Z" fill="#c1d4e2" opacity="1" stroke-width="2" stroke="#272d30"></path><path d="M605.36 820.11H503.71C502.3 820.06 500.94 819.47 499.95 818.44 498.97 817.42 498.41 816.05 498.41 814.62 498.41 813.2 498.97 811.83 499.95 810.81 500.94 809.79 502.3 809.19 503.71 809.15H605.36C606.79 809.19 608.15 809.79 609.14 810.81 610.12 811.83 610.68 813.2 610.68 814.62 610.68 816.05 610.12 817.42 609.14 818.44 608.15 819.47 606.79 820.06 605.36 820.11V820.11Z" fill="#c1d4e2" opacity="1" stroke-width="2" stroke="#272d30"></path><path d="M629.4 890.08H486.84C486.1 890.11 485.36 889.99 484.68 889.72 484 889.46 483.37 889.05 482.84 888.54 482.31 888.03 481.89 887.42 481.6 886.74 481.32 886.06 481.17 885.34 481.17 884.6 481.17 883.86 481.32 883.13 481.6 882.46 481.89 881.78 482.31 881.17 482.84 880.66 483.37 880.15 484 879.74 484.68 879.48 485.36 879.21 486.1 879.09 486.84 879.12H629.4C630.14 879.09 630.87 879.21 631.56 879.48 632.25 879.74 632.88 880.15 633.39 880.66 633.92 881.17 634.35 881.78 634.64 882.46 634.93 883.13 635.07 883.86 635.07 884.6 635.07 885.34 634.93 886.06 634.64 886.74 634.35 887.42 633.92 888.03 633.39 888.54 632.88 889.05 632.25 889.46 631.56 889.72 630.87 889.99 630.14 890.11 629.4 890.08V890.08Z" fill="#c1d4e2" opacity="1" stroke-width="2" stroke="#272d30"></path><path d="M545.5 925.06H482.05C480.63 925.03 479.27 924.43 478.29 923.4 477.3 922.38 476.74 921.01 476.74 919.59 476.74 918.16 477.3 916.79 478.29 915.76 479.27 914.74 480.63 914.15 482.05 914.1H545.5C546.92 914.15 548.27 914.74 549.26 915.76 550.25 916.79 550.8 918.16 550.8 919.59 550.8 921.01 550.25 922.38 549.26 923.4 548.27 924.43 546.92 925.03 545.5 925.06Z" fill="#c1d4e2" opacity="1" stroke-width="2" stroke="#272d30"></path></g><g><path d="M1005.45 879.39C1005.12 879.8 1004.73 880.12 1004.29 880.34 1003.86 880.56 1003.4 880.68 1002.93 880.68 1003.88 880.68 1004.78 881.14 1005.45 881.97 1006.13 882.8 1006.5 883.9 1006.5 885.07V901.23C1005.55 901.23 1004.65 901.69 1003.98 902.51 1003.31 903.35 1002.92 904.47 1002.92 905.63 1002.92 906.79 1003.31 907.92 1003.98 908.74 1004.65 909.57 1005.55 910.03 1006.5 910.03V926.19C1006.5 927.36 1006.13 928.46 1005.45 929.29 1004.78 930.12 1003.88 930.58 1002.93 930.58H862.81C861.86 930.58 860.96 930.12 860.28 929.29 859.61 928.46 859.24 927.36 859.24 926.19V910.03C860.19 910.03 861.09 909.57 861.76 908.74 862.43 907.92 862.81 906.79 862.81 905.63 862.81 904.47 862.43 903.35 861.76 902.51 861.09 901.69 860.19 901.23 859.24 901.23V885.07C860.19 885.07 861.09 884.61 861.76 883.79 862.43 882.96 862.81 881.85 862.81 880.68 862.81 879.51 862.43 878.39 861.76 877.57 861.09 876.75 860.19 876.28 859.24 876.28V860.12C859.24 858.96 859.61 857.85 860.28 857.03 860.96 856.19 861.86 855.73 862.81 855.73H1002.93C1003.88 855.73 1004.78 856.19 1005.45 857.03 1006.13 857.85 1006.5 858.96 1006.5 860.12V876.28C1006.5 876.86 1006.41 877.44 1006.23 877.97 1006.04 878.51 1005.78 878.98 1005.45 879.39V879.39Z" fill="#113d59" opacity="1" stroke-width="2" stroke="#272d30"></path><path d="M1005.45 879.39C1005.12 879.8 1004.73 880.12 1004.29 880.34 1003.86 880.56 1003.4 880.68 1002.93 880.68 1003.88 880.68 1004.78 881.14 1005.45 881.97 1006.13 882.8 1006.5 883.9 1006.5 885.07V901.23C1005.55 901.23 1004.65 901.69 1003.98 902.51 1003.31 903.35 1002.92 904.47 1002.92 905.63 1002.92 906.79 1003.31 907.92 1003.98 908.74 1004.65 909.57 1005.55 910.03 1006.5 910.03V926.19C1006.5 927.36 1006.13 928.46 1005.45 929.29 1004.78 930.12 1003.88 930.58 1002.93 930.58H962.26V855.73H1002.93C1003.88 855.73 1004.78 856.19 1005.45 857.03 1006.13 857.85 1006.5 858.96 1006.5 860.12V876.28C1006.5 876.86 1006.41 877.44 1006.23 877.97 1006.04 878.51 1005.78 878.98 1005.45 879.39V879.39Z" fill="#113d5900" opacity="0" stroke-width="2" stroke="#ffffff00"></path><path d="M956.59 855.73H950.92V930.58H956.59V855.73Z" fill="#113d5900" opacity="0" stroke-width="2" stroke="#ffffff00"></path><path d="M862.95 905.63H1003.2" stroke="#272d30" stroke-width="2" stroke-linecap="round" stroke-linejoin="round" opacity="1" fill="none"></path><path d="M862.95 880.68H1003.2" stroke="#272d30" stroke-width="2" stroke-linecap="round" stroke-linejoin="round" opacity="1" fill="none"></path></g><g><path d="M1131.89 741.88C1137.72 741.88 1141.44 737.16 1140.21 731.32 1138.96 725.49 1133.23 720.76 1127.4 720.76 1121.57 720.76 1117.85 725.49 1119.09 731.32 1120.32 737.16 1126.06 741.88 1131.89 741.88Z" fill="#3b607f" opacity="1" stroke-width="2" stroke="#272d30"></path><path d="M1154.59 755.97C1154.61 755.97 1154.63 755.96 1154.63 755.95 1154.65 755.94 1154.66 755.93 1154.67 755.92 1154.68 755.9 1154.68 755.88 1154.68 755.86 1154.67 755.85 1154.66 755.83 1154.65 755.82 1152.13 753.3 1150.35 750.15 1149.47 746.7 1149.47 746.68 1149.46 746.67 1149.45 746.65 1149.43 746.65 1149.42 746.64 1149.41 746.64 1148.45 746.39 1147.47 746.26 1146.49 746.25H1119.16C1113.01 746.25 1109.05 751.28 1110.36 757.42L1113.83 773.72C1114.31 775.72 1115.42 777.51 1117.01 778.82 1118.6 780.12 1120.57 780.88 1122.62 780.97H1142.36C1142.36 780.97 1142.38 780.97 1142.39 780.97 1142.41 780.96 1142.42 780.95 1142.43 780.94 1142.43 780.93 1142.43 780.92 1142.44 780.9 1142.44 780.89 1142.44 780.88 1142.44 780.87L1140.63 772.35C1138.71 763.32 1144.5 755.97 1153.53 755.97L1154.59 755.97Z" fill="#3b607f" opacity="1" stroke-width="2" stroke="#272d30"></path><path d="M1196.5 741.88C1202.33 741.88 1206.06 737.16 1204.81 731.32 1203.57 725.49 1197.85 720.76 1192.01 720.76 1186.17 720.76 1182.45 725.49 1183.7 731.32 1184.94 737.16 1190.67 741.88 1196.5 741.88Z" fill="#3b607f" opacity="1" stroke-width="2" stroke="#272d30"></path><path d="M1211.09 746.25H1183.77C1182.84 746.25 1181.93 746.37 1181.03 746.62 1181.02 746.63 1181 746.65 1180.99 746.66 1180.97 746.68 1180.97 746.7 1180.97 746.72 1181.61 749.82 1181.15 753.05 1179.66 755.84 1179.65 755.85 1179.64 755.86 1179.64 755.88 1179.64 755.9 1179.65 755.92 1179.66 755.92 1179.67 755.94 1179.67 755.95 1179.68 755.96 1179.7 755.97 1179.72 755.97 1179.73 755.97H1180.85C1189.88 755.97 1198.79 763.32 1200.72 772.35L1202.53 780.9C1202.54 780.92 1202.55 780.94 1202.57 780.96 1202.58 780.97 1202.6 780.97 1202.62 780.97H1222.39C1226.39 780.97 1228.96 777.71 1228.11 773.71L1224.64 757.42C1223.33 751.28 1217.24 746.25 1211.09 746.25Z" fill="#3b607f" opacity="1" stroke-width="2" stroke="#272d30"></path><path d="M1167.37 756.81C1173.2 756.81 1176.92 752.08 1175.68 746.25 1174.44 740.42 1168.71 735.69 1162.88 735.69 1157.05 735.69 1153.33 740.42 1154.56 746.25 1155.8 752.08 1161.54 756.81 1167.37 756.81Z" fill="#3b607f" opacity="1" stroke-width="2" stroke="#272d30"></path><path d="M1195.51 772.35C1194.2 766.2 1188.1 761.18 1181.96 761.18H1154.63C1148.49 761.18 1144.53 766.2 1145.84 772.35L1149.3 788.64C1149.78 790.64 1150.9 792.44 1152.49 793.74 1154.07 795.05 1156.05 795.81 1158.1 795.9H1193.26C1197.25 795.9 1199.82 792.64 1198.97 788.65L1195.51 772.35Z" fill="#3b607f" opacity="1" stroke-width="2" stroke="#272d30"></path><path d="M1238.02 731.89C1236.41 731.89 1234.86 731.34 1233.61 730.33 1232.36 729.31 1231.5 727.91 1231.17 726.34L1227.02 706.83C1225.04 697.58 1215.63 689.77 1206.46 689.77H1186.95C1185.09 689.77 1183.3 689.03 1181.98 687.72 1180.67 686.4 1179.93 684.61 1179.93 682.75 1179.93 680.89 1180.67 679.1 1181.98 677.79 1183.3 676.47 1185.09 675.74 1186.95 675.74H1206.46C1222.33 675.74 1237.39 688.11 1240.74 703.91L1244.89 723.42C1245.1 724.44 1245.09 725.5 1244.85 726.52 1244.6 727.53 1244.13 728.48 1243.47 729.3 1242.81 730.11 1241.98 730.76 1241.04 731.21 1240.1 731.67 1239.07 731.89 1238.02 731.89V731.89Z" fill="#1377d8" opacity="1" stroke-width="2" stroke="#272d30"></path><path d="M1083.13 731.89C1081.52 731.89 1079.97 731.34 1078.72 730.33 1077.47 729.31 1076.61 727.91 1076.28 726.34L1072.13 706.83C1070.4 698.72 1072.16 690.7 1076.93 684.8 1081.66 678.95 1088.71 675.74 1096.8 675.74H1116.32C1118.18 675.74 1119.96 676.47 1121.27 677.79 1122.59 679.1 1123.33 680.89 1123.33 682.75 1123.33 684.61 1122.59 686.4 1121.27 687.72 1119.96 689.03 1118.18 689.77 1116.32 689.77H1096.79C1093.03 689.77 1089.85 691.14 1087.83 693.64 1085.71 696.27 1085 699.91 1085.86 703.91L1090 723.42C1090.21 724.45 1090.21 725.5 1089.96 726.52 1089.71 727.53 1089.24 728.48 1088.58 729.3 1087.93 730.11 1087.09 730.76 1086.15 731.21 1085.21 731.67 1084.17 731.89 1083.13 731.89H1083.13Z" fill="#1377d8" opacity="1" stroke-width="2" stroke="#272d30"></path><path d="M1149.23 844.66H1129.72C1113.85 844.66 1098.79 832.28 1095.43 816.49L1091.29 796.97C1090.92 795.16 1091.28 793.27 1092.29 791.72 1093.31 790.17 1094.9 789.09 1096.7 788.7 1098.52 788.31 1100.41 788.67 1101.96 789.67 1103.52 790.67 1104.62 792.24 1105.02 794.05L1109.16 813.57C1111.13 822.81 1120.54 830.62 1129.72 830.62H1149.23C1151.09 830.62 1152.88 831.36 1154.2 832.68 1155.51 833.99 1156.25 835.78 1156.25 837.64 1156.25 839.5 1155.51 841.28 1154.2 842.6 1152.88 843.91 1151.09 844.66 1149.23 844.66Z" fill="#1377d8" opacity="1" stroke-width="2" stroke="#272d30"></path><path d="M1239.38 844.66H1219.86C1218 844.66 1216.22 843.91 1214.91 842.6 1213.59 841.28 1212.85 839.5 1212.85 837.64 1212.85 835.78 1213.59 833.99 1214.91 832.68 1216.22 831.36 1218 830.62 1219.86 830.62H1239.38C1243.14 830.62 1246.32 829.25 1248.34 826.77 1250.47 824.13 1251.17 820.49 1250.32 816.49L1246.17 796.97C1245.97 796.07 1245.95 795.14 1246.12 794.23 1246.29 793.31 1246.63 792.45 1247.13 791.67 1247.63 790.88 1248.28 790.21 1249.04 789.68 1249.8 789.17 1250.66 788.79 1251.57 788.6 1252.47 788.4 1253.41 788.39 1254.32 788.57 1255.23 788.74 1256.09 789.09 1256.87 789.6 1257.65 790.1 1258.31 790.75 1258.83 791.52 1259.36 792.29 1259.72 793.15 1259.9 794.06L1264.05 813.57C1265.78 821.67 1264.02 829.7 1259.25 835.6 1254.51 841.44 1247.46 844.66 1239.38 844.66Z" fill="#1377d8" opacity="1" stroke-width="2" stroke="#272d30"></path></g><g><path d="M1197.15 365.62H1190.51C1188.1 365.62 1185.79 364.66 1184.08 362.95 1182.37 361.25 1181.42 358.94 1181.42 356.52V337.43C1181.42 335.02 1182.37 332.69 1184.08 331 1185.79 329.29 1188.1 328.33 1190.51 328.32H1197.15C1199.56 328.33 1201.87 329.29 1203.57 331 1205.28 332.69 1206.24 335.02 1206.25 337.43V356.53C1206.24 358.94 1205.28 361.25 1203.57 362.95 1201.88 364.66 1199.56 365.62 1197.15 365.62ZM1190.51 334.19C1189.65 334.19 1188.84 334.54 1188.22 335.14 1187.62 335.74 1187.27 336.57 1187.27 337.43V356.53C1187.27 357.39 1187.62 358.2 1188.22 358.82 1188.84 359.42 1189.65 359.76 1190.51 359.76H1197.15C1198.01 359.76 1198.83 359.42 1199.44 358.82 1200.04 358.2 1200.38 357.39 1200.38 356.53V337.43C1200.38 336.57 1200.04 335.74 1199.44 335.14 1198.83 334.54 1198.01 334.19 1197.15 334.19H1190.51Z" fill="#f2f6f9" opacity="1" stroke-width="2" stroke="#272d30"></path><path d="M1155.61 365.62H1148.98C1146.56 365.62 1144.25 364.66 1142.54 362.95 1140.83 361.25 1139.87 358.94 1139.87 356.52V337.43C1139.87 335.02 1140.83 332.69 1142.54 331 1144.25 329.29 1146.56 328.33 1148.98 328.32H1155.61C1158.02 328.33 1160.34 329.29 1162.05 331 1163.75 332.69 1164.71 335.02 1164.71 337.43V356.53C1164.71 358.94 1163.74 361.25 1162.05 362.95 1160.34 364.66 1158.02 365.62 1155.61 365.62V365.62ZM1148.98 334.19C1148.12 334.19 1147.29 334.54 1146.69 335.14 1146.08 335.74 1145.74 336.57 1145.74 337.43V356.53C1145.74 357.39 1146.08 358.2 1146.69 358.82 1147.29 359.42 1148.12 359.76 1148.98 359.76H1155.61C1156.03 359.76 1156.46 359.67 1156.85 359.52 1157.24 359.35 1157.59 359.12 1157.89 358.82 1158.2 358.51 1158.44 358.16 1158.6 357.77 1158.77 357.36 1158.84 356.95 1158.84 356.53V337.43C1158.84 337 1158.77 336.58 1158.6 336.19 1158.44 335.8 1158.2 335.44 1157.89 335.14 1157.59 334.84 1157.24 334.6 1156.85 334.44 1156.46 334.28 1156.03 334.19 1155.61 334.19L1148.98 334.19Z" fill="#f2f6f9" opacity="1" stroke-width="2" stroke="#272d30"></path><path d="M1248.24 337.43C1248.24 335.02 1247.28 332.69 1245.57 331 1243.87 329.29 1241.54 328.33 1239.13 328.32H1232.51C1230.09 328.33 1227.78 329.29 1226.07 331 1224.36 332.69 1223.4 335.02 1223.4 337.43V340.81C1223.4 343.06 1224.24 345.24 1225.76 346.9 1225.78 346.92 1225.79 346.94 1225.79 346.98 1225.79 347 1225.78 347.03 1225.76 347.05 1224.24 348.72 1223.4 350.89 1223.4 353.15V356.53C1223.4 358.94 1224.36 361.25 1226.07 362.95 1227.78 364.66 1230.09 365.62 1232.51 365.62H1239.13C1241.54 365.62 1243.87 364.66 1245.57 362.95 1247.28 361.25 1248.24 358.94 1248.24 356.53V353.15C1248.24 350.89 1247.39 348.72 1245.87 347.05 1245.86 347.03 1245.85 347 1245.85 346.98 1245.85 346.94 1245.86 346.92 1245.87 346.9 1247.39 345.24 1248.24 343.06 1248.24 340.81V337.43ZM1229.27 337.43C1229.27 337 1229.35 336.58 1229.52 336.19 1229.67 335.8 1229.92 335.44 1230.22 335.14 1230.52 334.84 1230.88 334.6 1231.27 334.44 1231.66 334.28 1232.08 334.19 1232.51 334.19H1239.13C1239.99 334.19 1240.82 334.54 1241.42 335.14 1242.04 335.74 1242.37 336.57 1242.37 337.43V340.81C1242.37 341.67 1242.04 342.49 1241.42 343.09 1240.82 343.71 1239.99 344.04 1239.13 344.04H1232.51C1232.08 344.04 1231.66 343.96 1231.27 343.8 1230.88 343.64 1230.52 343.4 1230.22 343.09 1229.92 342.79 1229.67 342.44 1229.52 342.05 1229.35 341.65 1229.27 341.23 1229.27 340.81V337.43ZM1242.37 356.53C1242.37 356.95 1242.28 357.38 1242.12 357.77 1241.96 358.16 1241.72 358.51 1241.42 358.82 1241.12 359.12 1240.76 359.35 1240.37 359.52 1239.98 359.67 1239.56 359.76 1239.13 359.76H1232.5C1231.64 359.76 1230.82 359.42 1230.21 358.82 1229.61 358.2 1229.26 357.39 1229.26 356.53V353.15C1229.26 352.29 1229.61 351.46 1230.21 350.85 1230.82 350.25 1231.64 349.91 1232.5 349.91H1239.13C1239.56 349.91 1239.98 349.99 1240.37 350.16 1240.76 350.31 1241.12 350.56 1241.42 350.85 1241.72 351.15 1241.96 351.51 1242.12 351.91 1242.28 352.3 1242.37 352.71 1242.37 353.15V356.53Z" fill="#f2f6f9" opacity="1" stroke-width="2" stroke="#272d30"></path><path d="M1271.75 337.43C1271.75 335.02 1270.79 332.69 1269.08 331 1267.37 329.29 1265.07 328.33 1262.64 328.32H1251.8C1251.03 328.32 1250.28 328.63 1249.73 329.18 1249.18 329.74 1248.86 330.49 1248.86 331.26 1248.86 332.04 1249.18 332.78 1249.73 333.33 1250.28 333.89 1251.03 334.19 1251.8 334.19H1262.64C1263.5 334.19 1264.33 334.54 1264.94 335.14 1265.54 335.75 1265.88 336.57 1265.88 337.43V340.81C1265.88 341.67 1265.54 342.49 1264.94 343.09 1264.33 343.71 1263.5 344.04 1262.64 344.04H1256C1255.24 344.04 1254.49 344.35 1253.93 344.9 1253.38 345.46 1253.07 346.21 1253.07 346.98 1253.07 347.76 1253.38 348.51 1253.93 349.05 1254.49 349.61 1255.24 349.91 1256 349.91H1262.64C1263.07 349.91 1263.49 350 1263.88 350.16 1264.27 350.32 1264.63 350.56 1264.93 350.86 1265.23 351.16 1265.47 351.52 1265.63 351.91 1265.79 352.3 1265.88 352.72 1265.88 353.15V356.53C1265.88 356.96 1265.79 357.38 1265.63 357.77 1265.47 358.17 1265.23 358.53 1264.93 358.83 1264.63 359.12 1264.27 359.36 1263.88 359.52 1263.49 359.69 1263.07 359.76 1262.64 359.76H1251.8C1251.41 359.76 1251.03 359.84 1250.67 359.99 1250.31 360.14 1249.99 360.36 1249.72 360.62 1249.46 360.9 1249.23 361.23 1249.09 361.58 1248.94 361.94 1248.86 362.32 1248.86 362.7 1248.86 363.09 1248.94 363.47 1249.09 363.83 1249.23 364.18 1249.46 364.51 1249.72 364.77 1249.99 365.05 1250.31 365.26 1250.67 365.41 1251.03 365.55 1251.41 365.63 1251.8 365.63H1262.64C1265.05 365.63 1267.37 364.67 1269.07 362.97 1270.78 361.26 1271.74 358.95 1271.75 356.54V353.15C1271.74 350.89 1270.9 348.73 1269.38 347.05 1269.36 347.04 1269.36 347.01 1269.36 346.99 1269.36 346.95 1269.36 346.93 1269.38 346.91 1270.9 345.25 1271.74 343.07 1271.75 340.82L1271.75 337.43Z" fill="#f2f6f9" opacity="1" stroke-width="2" stroke="#272d30"></path><path d="M1291.49 365.62C1290.72 365.62 1289.97 365.31 1289.41 364.76 1288.86 364.22 1288.55 363.47 1288.55 362.69V337.43C1288.55 336.57 1288.22 335.74 1287.6 335.14 1287 334.54 1286.18 334.19 1285.32 334.19H1274.48C1273.7 334.19 1272.95 333.88 1272.41 333.33 1271.85 332.78 1271.55 332.04 1271.55 331.26 1271.55 330.47 1271.85 329.73 1272.41 329.18 1272.95 328.63 1273.7 328.32 1274.48 328.32H1285.32C1287.74 328.32 1290.05 329.28 1291.75 330.99 1293.46 332.69 1294.42 335.02 1294.42 337.43V362.69C1294.42 363.47 1294.11 364.22 1293.56 364.76 1293.02 365.31 1292.27 365.62 1291.49 365.62Z" fill="#f2f6f9" opacity="1" stroke-width="2" stroke="#272d30"></path><path d="M1215.15 365.62C1214.36 365.62 1213.62 365.31 1213.07 364.76 1212.52 364.22 1212.21 363.47 1212.21 362.69V331.26C1212.2 330.87 1212.27 330.47 1212.41 330.12 1212.56 329.75 1212.78 329.43 1213.05 329.15 1213.33 328.87 1213.65 328.64 1214.01 328.49 1214.36 328.34 1214.75 328.27 1215.15 328.27 1215.54 328.27 1215.92 328.34 1216.28 328.49 1216.64 328.64 1216.96 328.87 1217.24 329.15 1217.51 329.43 1217.72 329.75 1217.87 330.12 1218.01 330.47 1218.08 330.87 1218.08 331.26V362.69C1218.08 363.47 1217.77 364.22 1217.22 364.76 1216.66 365.31 1215.92 365.62 1215.15 365.62Z" fill="#f2f6f9" opacity="1" stroke-width="2" stroke="#272d30"></path><path d="M1173.68 365.62C1175.3 365.62 1176.62 364.3 1176.62 362.69 1176.62 361.07 1175.3 359.75 1173.68 359.75 1172.07 359.75 1170.75 361.07 1170.75 362.69 1170.75 364.3 1172.07 365.62 1173.68 365.62Z" fill="#f2f6f9" opacity="1" stroke-width="2" stroke="#272d30"></path></g><g><path d="M1132.16 175.97L1141.07 187.78 881.86 382.7 825.88 310.03 652.02 440.74 570.69 335.02 424.57 444.94 440.4 465.99 565.73 371.75 646.97 477.47 820.91 346.75 876.81 419.43 1156.9 208.84 1166.41 221.51 1188.75 169.04 1132.16 175.97Z" fill="#1377d8" opacity="1" stroke-width="2" stroke="#272d30"></path></g></svg>